<svg width="60" height="60" viewBox="0 0 60 60" fill="none" xmlns="http://www.w3.org/2000/svg">
<path d="M60 30C60 13.4315 46.5685 0 30 0C13.4315 0 0 13.4315 0 30C0 46.5685 13.4315 60 30 60C46.5685 60 60 46.5685 60 30Z" fill="#7289DA"/>
<path d="M27.285 29.46C26.43 29.46 25.755 30.21 25.755 31.125C25.755 32.04 26.445 32.79 27.285 32.79C28.14 32.79 28.815 32.04 28.815 31.125C28.83 30.21 28.14 29.46 27.285 29.46ZM32.76 29.46C31.905 29.46 31.23 30.21 31.23 31.125C31.23 32.04 31.92 32.79 32.76 32.79C33.615 32.79 34.29 32.04 34.29 31.125C34.29 30.21 33.615 29.46 32.76 29.46Z" fill="white"/>
<path d="M40.05 16.875H19.95C18.255 16.875 16.875 18.255 16.875 19.965V40.245C16.875 41.955 18.255 43.335 19.95 43.335H36.96L36.165 40.56L38.085 42.345L39.9 44.025L43.125 46.875V19.965C43.125 18.255 41.745 16.875 40.05 16.875ZM34.26 36.465C34.26 36.465 33.72 35.82 33.27 35.25C35.235 34.695 35.985 33.465 35.985 33.465C35.37 33.87 34.785 34.155 34.26 34.35C33.51 34.665 32.79 34.875 32.085 34.995C30.645 35.265 29.325 35.19 28.2 34.98C27.345 34.815 26.61 34.575 25.995 34.335C25.65 34.2 25.275 34.035 24.9 33.825C24.855 33.795 24.81 33.78 24.765 33.75C24.735 33.735 24.72 33.72 24.705 33.705C24.435 33.555 24.285 33.45 24.285 33.45C24.285 33.45 25.005 34.65 26.91 35.22C26.46 35.79 25.905 36.465 25.905 36.465C22.59 36.36 21.33 34.185 21.33 34.185C21.33 29.355 23.49 25.44 23.49 25.44C25.65 23.82 27.705 23.865 27.705 23.865L27.855 24.045C25.155 24.825 23.91 26.01 23.91 26.01C23.91 26.01 24.24 25.83 24.795 25.575C26.4 24.87 27.675 24.675 28.2 24.63C28.29 24.615 28.365 24.6 28.455 24.6C29.37 24.48 30.405 24.45 31.485 24.57C32.91 24.735 34.44 25.155 36 26.01C36 26.01 34.815 24.885 32.265 24.105L32.475 23.865C32.475 23.865 34.53 23.82 36.69 25.44C36.69 25.44 38.85 29.355 38.85 34.185C38.85 34.185 37.575 36.36 34.26 36.465Z" fill="white"/>
</svg>
