<svg width="60" height="60" viewBox="0 0 60 60" fill="none" xmlns="http://www.w3.org/2000/svg">
<path d="M0 30C0 46.5685 13.4315 60 30 60C46.5685 60 60 46.5685 60 30C60 13.4315 46.5685 0 30 0C13.4315 0 0 13.4315 0 30Z" fill="#1877F2"/>
<path d="M45 30C45 21.75 38.25 15 30 15C21.75 15 15 21.75 15 30C15 37.5 20.4375 43.6875 27.5625 44.8125V34.3125H23.8125V30H27.5625V26.625C27.5625 22.875 29.8125 20.8125 33.1875 20.8125C34.875 20.8125 36.5625 21.1875 36.5625 21.1875V24.9375H34.6875C32.8125 24.9375 32.25 26.0625 32.25 27.1875V30H36.375L35.625 34.3125H32.0625V45C39.5625 43.875 45 37.5 45 30Z" fill="white"/>
</svg>
