<svg width="60" height="60" viewBox="0 0 60 60" fill="none" xmlns="http://www.w3.org/2000/svg">
<path d="M0 30C0 46.5685 13.4315 60 30 60C46.5685 60 60 46.5685 60 30C60 13.4315 46.5685 0 30 0C13.4315 0 0 13.4315 0 30Z" fill="#0088CC"/>
<path d="M15.1873 29.4531C23.2404 25.9445 28.6103 23.6314 31.2972 22.5138C38.9688 19.323 40.5629 18.7687 41.6019 18.7502C41.8304 18.7463 42.3413 18.803 42.6723 19.0715C42.9518 19.2983 43.0287 19.6046 43.0655 19.8196C43.1023 20.0346 43.1481 20.5244 43.1117 20.9071C42.6959 25.2752 40.8971 35.8753 39.982 40.7676C39.5947 42.8377 38.8323 43.5318 38.0941 43.5997C36.4899 43.7474 35.2717 42.5396 33.718 41.5211C31.2867 39.9273 29.9132 38.9352 27.5532 37.38C24.8258 35.5827 26.5938 34.5949 28.1482 32.9805C28.5549 32.558 35.6231 26.129 35.7599 25.5458C35.777 25.4728 35.7929 25.2009 35.6313 25.0574C35.4698 24.9138 35.2314 24.9629 35.0594 25.002C34.8155 25.0573 30.9315 27.6245 23.4073 32.7036C22.3048 33.4606 21.3062 33.8295 20.4115 33.8101C19.4252 33.7888 17.5279 33.2524 16.1175 32.794C14.3875 32.2316 13.0125 31.9343 13.1323 30.9793C13.1946 30.4818 13.8797 29.9731 15.1873 29.4531Z" fill="white"/>
</svg>
