<svg width="60" height="60" viewBox="0 0 60 60" fill="none" xmlns="http://www.w3.org/2000/svg">
<path d="M0 30C0 46.5685 13.4315 60 30 60C46.5685 60 60 46.5685 60 30C60 13.4315 46.5685 0 30 0C13.4315 0 0 13.4315 0 30Z" fill="#1DA1F2"/>
<path d="M45 20.625C43.875 21.1875 42.75 21.375 41.4375 21.5625C42.75 20.8125 43.6875 19.6875 44.0625 18.1875C42.9375 18.9375 41.625 19.3125 40.125 19.6875C39 18.5625 37.3125 17.8125 35.625 17.8125C31.6875 17.8125 28.6875 21.5625 29.625 25.3125C24.5625 25.125 20.0625 22.6875 16.875 18.9375C15.1875 21.75 16.125 25.3125 18.75 27.1875C17.8125 27.1875 16.875 26.8125 15.9375 26.4375C15.9375 29.25 18 31.875 20.8125 32.625C19.875 32.8125 18.9375 33 18 32.8125C18.75 35.25 21 37.125 23.8125 37.125C21.5625 38.8125 18.1875 39.75 15 39.375C17.8125 41.0625 21 42.1875 24.375 42.1875C35.8125 42.1875 42.1875 32.625 41.8125 23.8125C43.125 23.0625 44.25 21.9375 45 20.625Z" fill="white"/>
</svg>
