<svg width="60" height="60" viewBox="0 0 60 60" fill="none" xmlns="http://www.w3.org/2000/svg">
<path d="M0 30C0 46.5685 13.4315 60 30 60C46.5685 60 60 46.5685 60 30C60 13.4315 46.5685 0 30 0C13.4315 0 0 13.4315 0 30Z" fill="#25D366"/>
<path fill-rule="evenodd" clip-rule="evenodd" d="M40.5 19.3125C37.6875 16.5 33.9375 15 30 15C21.75 15 15 21.75 15 30C15 32.625 15.75 35.25 17.0625 37.5L15 45L22.875 42.9375C25.125 44.0625 27.5625 44.8125 30 44.8125C38.25 44.8125 45 38.0625 45 29.8125C45 25.875 43.3125 22.125 40.5 19.3125ZM30 42.375C27.75 42.375 25.5 41.8125 23.625 40.6875L23.25 40.5L18.5625 41.8125L19.875 37.3125L19.5 36.75C18.1875 34.6875 17.625 32.4375 17.625 30.1875C17.625 23.4375 23.25 17.8125 30 17.8125C33.375 17.8125 36.375 19.125 38.8125 21.375C41.25 23.8125 42.375 26.8125 42.375 30.1875C42.375 36.75 36.9375 42.375 30 42.375ZM36.75 33C36.375 32.8125 34.5 31.875 34.125 31.875C33.75 31.6875 33.5625 31.6875 33.375 32.0625C33.1875 32.4375 32.4375 33.1875 32.25 33.5625C32.0625 33.75 31.875 33.75 31.5 33.75C31.125 33.5625 30 33.1875 28.5 31.875C27.375 30.9375 26.625 29.625 26.4375 29.25C26.25 28.875 26.4375 28.6875 26.625 28.5C26.8125 28.3125 27 28.125 27.1875 27.9375C27.375 27.75 27.375 27.5625 27.5625 27.375C27.75 27.1875 27.5625 27 27.5625 26.8125C27.5625 26.625 26.8125 24.75 26.4375 24C26.25 23.4375 25.875 23.4375 25.6875 23.4375C25.5 23.4375 25.3125 23.4375 24.9375 23.4375C24.75 23.4375 24.375 23.4375 24 23.8125C23.625 24.1875 22.6875 25.125 22.6875 27C22.6875 28.875 24 30.5625 24.1875 30.9375C24.375 31.125 26.8125 35.0625 30.5625 36.5625C33.75 37.875 34.3125 37.5 35.0625 37.5C35.8125 37.5 37.3125 36.5625 37.5 35.8125C37.875 34.875 37.875 34.125 37.6875 34.125C37.5 33.1875 37.125 33.1875 36.75 33Z" fill="white"/>
</svg>
