<svg width="40" height="39" viewBox="0 0 40 39" fill="none" xmlns="http://www.w3.org/2000/svg">
<g filter="url(#filter0_d_1387_5550)">
<rect x="8" y="5" width="24" height="24" rx="4.8" fill="#150867" shape-rendering="crispEdges"/>
<path d="M20.6205 10.4546C19.4311 10.7299 18.543 11.3947 17.8886 12.4957C17.6809 12.8489 16.3565 15.1652 16.2059 15.4457C16.18 15.5028 16.0553 15.7105 15.941 15.9131C15.6502 16.4065 15.0737 17.4296 14.9595 17.6477C14.9127 17.7412 14.8088 18.0113 14.7361 18.245C14.6167 18.619 14.6011 18.7488 14.6011 19.4707C14.5959 20.2238 14.6063 20.3069 14.7465 20.7431C15.0114 21.5481 15.51 22.2804 16.1332 22.7686C16.2994 22.8985 16.4448 23.0023 16.4604 23.0023C16.4812 23.0023 16.5851 23.0595 16.6993 23.1322C16.8136 23.2049 17.1252 23.3399 17.3901 23.4282C17.8367 23.584 17.9146 23.5944 18.595 23.5996C19.4519 23.5996 19.748 23.5321 20.4751 23.1789C21.2437 22.7998 21.7838 22.2493 22.3344 21.2885C22.4278 21.1327 22.6771 20.6912 22.8953 20.3121C23.1186 19.9329 23.2952 19.6109 23.2952 19.6005C23.2952 19.585 23.3471 19.4863 23.4146 19.3772C23.6276 19.0396 23.9028 18.5722 24.0586 18.2762C24.1417 18.1204 24.2456 17.9334 24.2872 17.8607C24.4533 17.5958 25.0454 16.5259 25.1597 16.287C25.4349 15.7209 25.544 15.1289 25.518 14.355C25.4817 13.2176 25.0922 12.3191 24.2872 11.5297C23.8613 11.109 23.3367 10.787 22.7343 10.5793C22.3447 10.4442 22.1889 10.4235 21.6073 10.4027C21.145 10.3923 20.8334 10.4079 20.6205 10.4546ZM22.272 11.2389C22.9368 11.4102 23.6639 11.8881 24.0534 12.4126C24.4014 12.88 24.4949 13.0618 24.6455 13.5916C24.926 14.5576 24.8013 15.3781 24.2144 16.4324C24.0327 16.7596 23.6587 17.4088 23.6328 17.4348C23.6276 17.44 23.3627 17.2946 23.0459 17.1076C22.7291 16.9206 22.459 16.77 22.4486 16.77C22.4382 16.77 22.2201 16.6402 21.9656 16.4844C21.7111 16.3286 21.2125 16.0377 20.8542 15.8352C20.4958 15.6326 20.0907 15.3937 19.9453 15.3054C19.6493 15.1237 19.4467 15.1029 19.2961 15.2379C19.1611 15.3574 19.1559 15.6846 19.2857 15.7936C19.3325 15.8352 19.8882 16.1676 20.5166 16.5363C23.3108 18.1671 23.238 18.1204 23.2069 18.2139C23.1861 18.2606 23.1342 18.3593 23.0874 18.432C23.0355 18.5047 22.8329 18.8527 22.6356 19.211C22.433 19.5694 22.1837 20.0108 22.0799 20.1874C21.976 20.3692 21.8929 20.5302 21.8929 20.5406C21.8929 20.551 21.8098 20.686 21.7111 20.8418C21.6125 20.9976 21.5294 21.143 21.5294 21.1638C21.5294 21.1846 21.4359 21.3248 21.3164 21.4754C21.0931 21.7663 21.0619 21.7715 20.8023 21.6001C20.6049 21.465 19.5558 20.8574 19.0624 20.5925C19.0053 20.5614 18.9014 20.499 18.8287 20.4523C18.0964 19.9849 17.0161 19.4032 16.8915 19.4032C16.6993 19.4032 16.5279 19.5798 16.5279 19.7771C16.5279 19.9797 16.5902 20.0524 17.0005 20.2861C17.1875 20.3952 17.442 20.5406 17.5614 20.6133C17.9977 20.8678 18.5898 21.2157 18.8598 21.3664C20.0959 22.0779 20.3816 22.2545 20.3868 22.3064C20.3868 22.3895 19.748 22.67 19.3688 22.7582C18.0081 23.0647 16.6058 22.4726 15.8476 21.2729C15.136 20.1459 15.1516 18.7955 15.8839 17.5854C16.0086 17.3777 16.1228 17.1699 16.1436 17.118C16.2111 16.9414 16.3358 16.9622 16.8188 17.2478C17.0836 17.4088 17.5874 17.7049 17.9458 17.9126C18.3041 18.1204 18.6988 18.3541 18.8287 18.432C19.9453 19.1071 20.366 19.3201 20.5114 19.2837C20.7555 19.2214 20.8542 18.7903 20.6516 18.6293C20.5582 18.5462 20.0232 18.2294 18.569 17.3933C17.0265 16.5052 16.6526 16.2818 16.6474 16.2455C16.6474 16.1987 18.6209 12.7554 18.6937 12.6775C18.7612 12.6048 18.7767 12.6152 19.6441 13.1449C19.8207 13.254 19.9765 13.3423 19.9869 13.3423C20.0024 13.3423 20.2206 13.4669 20.4751 13.6227C20.7295 13.7733 21.0412 13.9551 21.1658 14.0278C21.2956 14.1005 21.6125 14.2823 21.8669 14.4329C22.6979 14.9159 22.7706 14.9523 22.8797 14.9523C23.0407 14.9523 23.2432 14.7238 23.2432 14.542C23.2432 14.3758 23.1134 14.2511 22.6875 14.0122C22.5681 13.9447 22.2565 13.7577 21.9916 13.6019C21.7267 13.4461 21.4463 13.2799 21.3684 13.2384C21.2904 13.1968 21.0515 13.0618 20.8438 12.9424C19.6493 12.2464 19.3221 12.0491 19.3065 11.9971C19.2649 11.8673 20.1271 11.3791 20.6464 11.244C21.0256 11.1454 21.8981 11.1402 22.272 11.2389Z" fill="white"/>
</g>
<defs>
<filter id="filter0_d_1387_5550" x="0.8" y="0.2" width="38.4" height="38.4" filterUnits="userSpaceOnUse" color-interpolation-filters="sRGB">
<feFlood flood-opacity="0" result="BackgroundImageFix"/>
<feColorMatrix in="SourceAlpha" type="matrix" values="0 0 0 0 0 0 0 0 0 0 0 0 0 0 0 0 0 0 127 0" result="hardAlpha"/>
<feOffset dy="2.4"/>
<feGaussianBlur stdDeviation="3.6"/>
<feComposite in2="hardAlpha" operator="out"/>
<feColorMatrix type="matrix" values="0 0 0 0 0.0980392 0 0 0 0 0.0862745 0 0 0 0 0.231373 0 0 0 0.06 0"/>
<feBlend mode="normal" in2="BackgroundImageFix" result="effect1_dropShadow_1387_5550"/>
<feBlend mode="normal" in="SourceGraphic" in2="effect1_dropShadow_1387_5550" result="shape"/>
</filter>
</defs>
</svg>
