<svg width="160" height="28" viewBox="0 0 160 28" fill="none" xmlns="http://www.w3.org/2000/svg">
<path d="M11.7063 1.27331C9.3937 1.80854 7.66683 3.10116 6.3944 5.24208C5.99045 5.92879 3.41529 10.4328 3.12243 10.9781C3.07194 11.0892 2.82957 11.4931 2.6074 11.887C2.04187 12.8464 0.920923 14.8358 0.698752 15.2599C0.607864 15.4417 0.405891 15.9669 0.26451 16.4213C0.0322406 17.1484 0.00194465 17.4009 0.00194465 18.8046C-0.00815401 20.2689 0.0120433 20.4305 0.284707 21.2787C0.799739 22.844 1.76921 24.2679 2.98105 25.2172C3.30421 25.4697 3.58697 25.6717 3.61726 25.6717C3.65766 25.6717 3.85963 25.7827 4.0818 25.9241C4.30397 26.0655 4.90989 26.3281 5.42492 26.4998C6.29341 26.8027 6.44489 26.8229 7.76781 26.833C9.43409 26.833 10.0097 26.7017 11.4235 26.015C12.9181 25.2778 13.9684 24.2074 15.0388 22.3391C15.2206 22.0361 15.7054 21.1778 16.1295 20.4406C16.5637 19.7034 16.9071 19.0772 16.9071 19.057C16.9071 19.0267 17.0081 18.8349 17.1394 18.6228C17.5534 17.9664 18.0886 17.0575 18.3916 16.4819C18.5532 16.1789 18.7552 15.8154 18.8359 15.674C19.1591 15.159 20.3103 13.0786 20.5325 12.6141C21.0677 11.5133 21.2798 10.3621 21.2293 8.8574C21.1586 6.64579 20.4012 4.89873 18.8359 3.36373C18.0079 2.54574 16.9879 1.91962 15.8164 1.51568C15.059 1.25311 14.7561 1.21272 13.625 1.17232C12.7263 1.15212 12.1203 1.18242 11.7063 1.27331ZM14.9177 2.79821C16.2103 3.13146 17.6241 4.06054 18.3815 5.0805C19.0581 5.98938 19.2399 6.34283 19.5327 7.3729C20.0781 9.25125 19.8357 10.8468 18.6946 12.8969C18.3411 13.5331 17.614 14.7954 17.5635 14.8459C17.5534 14.856 17.0384 14.5732 16.4224 14.2097C15.8063 13.8461 15.2812 13.5533 15.261 13.5533C15.2408 13.5533 14.8167 13.3008 14.3218 12.9978C13.827 12.6949 12.8575 12.1294 12.1607 11.7355C11.4639 11.3417 10.6762 10.8771 10.3935 10.7055C9.81784 10.352 9.42399 10.3116 9.13113 10.5742C8.86857 10.8064 8.85847 11.4427 9.11093 11.6547C9.20182 11.7355 10.2824 12.3818 11.5043 13.0988C16.9374 16.2698 16.796 16.1789 16.7354 16.3607C16.695 16.4516 16.594 16.6435 16.5032 16.7848C16.4022 16.9262 16.0083 17.6028 15.6246 18.2996C15.2307 18.9965 14.746 19.8548 14.544 20.1982C14.342 20.5516 14.1805 20.8647 14.1805 20.8849C14.1805 20.9051 14.0189 21.1677 13.827 21.4706C13.6351 21.7736 13.4736 22.0563 13.4736 22.0967C13.4736 22.1371 13.2918 22.4098 13.0595 22.7027C12.6253 23.2682 12.5647 23.2783 12.0597 22.945C11.676 22.6825 9.63606 21.5009 8.67669 20.9859C8.56561 20.9253 8.36363 20.8041 8.22225 20.7132C6.79834 19.8043 4.69782 18.6733 4.45545 18.6733C4.0818 18.6733 3.74855 19.0166 3.74855 19.4004C3.74855 19.7942 3.86973 19.9356 4.66752 20.3901C5.03108 20.6021 5.52591 20.8849 5.75818 21.0263C6.60647 21.5211 7.75771 22.1977 8.28284 22.4906C10.6863 23.8741 11.2418 24.2175 11.2518 24.3184C11.2518 24.48 10.0097 25.0253 9.27251 25.197C6.62666 25.7928 3.90003 24.6416 2.42562 22.3088C1.04211 20.1174 1.0724 17.4918 2.49631 15.1388C2.73868 14.7348 2.96085 14.3309 3.00125 14.2299C3.13253 13.8865 3.3749 13.9269 4.31407 14.4824C4.8291 14.7954 5.80867 15.371 6.50548 15.775C7.20229 16.1789 7.96979 16.6334 8.22225 16.7848C10.3935 18.0977 11.2115 18.5117 11.4942 18.441C11.9689 18.3198 12.1607 17.4817 11.7669 17.1686C11.5851 17.007 10.5449 16.391 7.71732 14.7651C4.71802 13.0382 3.99091 12.604 3.98082 12.5333C3.98082 12.4424 7.81831 5.74701 7.95969 5.59553C8.09097 5.45415 8.12127 5.47435 9.80774 6.50441C10.1511 6.71648 10.4541 6.88816 10.4743 6.88816C10.5045 6.88816 10.9287 7.13053 11.4235 7.43349C11.9184 7.72635 12.5243 8.0798 12.7666 8.22118C13.0191 8.36256 13.6351 8.71602 14.13 9.00888C15.7458 9.94805 15.8871 10.0187 16.0992 10.0187C16.4123 10.0187 16.8061 9.5744 16.8061 9.22095C16.8061 8.89779 16.5536 8.65543 15.7256 8.19089C15.4933 8.05961 14.8874 7.69605 14.3723 7.39309C13.8573 7.09013 13.312 6.76698 13.1605 6.68619C13.009 6.6054 12.5445 6.34283 12.1405 6.11056C9.81784 4.75734 9.18163 4.3736 9.15133 4.27261C9.07054 4.02014 10.7469 3.07087 11.7568 2.8083C12.494 2.61643 14.1906 2.60633 14.9177 2.79821Z" fill="#150867"/>
<path d="M32.2923 21.192C32.8897 21.192 33.439 21.08 33.9403 20.856C34.4523 20.632 34.8683 20.3067 35.1883 19.88V21H36.9003V8.888H35.1083V13.352C34.7883 12.9787 34.383 12.6853 33.8923 12.472C33.4123 12.2587 32.8737 12.152 32.2763 12.152C31.455 12.152 30.7137 12.3493 30.0523 12.744C29.4017 13.1387 28.8843 13.6773 28.5003 14.36C28.127 15.0427 27.9403 15.8107 27.9403 16.664C27.9403 17.5173 28.127 18.2853 28.5003 18.968C28.8843 19.6507 29.4017 20.1947 30.0523 20.6C30.7137 20.9947 31.4603 21.192 32.2923 21.192ZM32.4683 19.512C31.9563 19.512 31.4977 19.3893 31.0923 19.144C30.6977 18.8987 30.3883 18.5627 30.1643 18.136C29.9403 17.6987 29.8283 17.208 29.8283 16.664C29.8283 16.12 29.9403 15.6347 30.1643 15.208C30.399 14.7813 30.7137 14.4453 31.1083 14.2C31.5137 13.9547 31.967 13.832 32.4683 13.832C32.9697 13.832 33.4177 13.9547 33.8123 14.2C34.2177 14.4453 34.5323 14.7813 34.7563 15.208C34.991 15.6347 35.1083 16.12 35.1083 16.664C35.1083 17.208 34.991 17.6987 34.7563 18.136C34.5323 18.5627 34.2177 18.8987 33.8123 19.144C33.4177 19.3893 32.9697 19.512 32.4683 19.512ZM39.1871 21H41.0751V16.008H46.5951V21H48.4671V9.08H46.5951V14.328H41.0751V9.08H39.1871V21ZM54.8251 21.192C55.7104 21.192 56.4784 20.9893 57.1291 20.584C57.7904 20.1787 58.2544 19.6667 58.5211 19.048L57.0491 18.328C56.8357 18.6907 56.5424 18.9947 56.1691 19.24C55.8064 19.4747 55.3637 19.592 54.8411 19.592C54.1584 19.592 53.5771 19.3787 53.0971 18.952C52.6171 18.5147 52.3504 17.928 52.2971 17.192H58.7291C58.7611 17.064 58.7824 16.9253 58.7931 16.776C58.8037 16.6267 58.8091 16.4827 58.8091 16.344C58.8091 15.5973 58.6437 14.9093 58.3131 14.28C57.9931 13.64 57.5237 13.128 56.9051 12.744C56.2971 12.3493 55.5557 12.152 54.6811 12.152C53.8704 12.152 53.1397 12.3493 52.4891 12.744C51.8491 13.128 51.3424 13.6613 50.9691 14.344C50.5957 15.016 50.4091 15.784 50.4091 16.648C50.4091 17.5013 50.5957 18.2747 50.9691 18.968C51.3531 19.6507 51.8757 20.1947 52.5371 20.6C53.1984 20.9947 53.9611 21.192 54.8251 21.192ZM54.6811 13.672C55.2891 13.672 55.8011 13.864 56.2171 14.248C56.6331 14.632 56.8571 15.1333 56.8891 15.752H52.3291C52.4357 15.0907 52.7077 14.5787 53.1451 14.216C53.5824 13.8533 54.0944 13.672 54.6811 13.672ZM63.0875 21.192C63.6848 21.192 64.2235 21.0907 64.7035 20.888C65.1835 20.6747 65.5835 20.376 65.9035 19.992V21H67.6315V15.176C67.6315 14.5787 67.4821 14.056 67.1835 13.608C66.8848 13.1493 66.4741 12.792 65.9515 12.536C65.4288 12.28 64.8261 12.152 64.1435 12.152C63.5995 12.152 63.0821 12.248 62.5915 12.44C62.1115 12.6213 61.6901 12.872 61.3275 13.192C60.9755 13.512 60.7141 13.8853 60.5435 14.312L62.0475 15.064C62.2181 14.6587 62.4795 14.3333 62.8315 14.088C63.1941 13.8427 63.6155 13.72 64.0955 13.72C64.6181 13.72 65.0341 13.8587 65.3435 14.136C65.6635 14.4027 65.8235 14.7493 65.8235 15.176V15.512L63.0715 15.96C62.0688 16.1307 61.3275 16.4613 60.8475 16.952C60.3781 17.432 60.1435 18.0187 60.1435 18.712C60.1435 19.4587 60.4155 20.0613 60.9595 20.52C61.5035 20.968 62.2128 21.192 63.0875 21.192ZM62.0315 18.648C62.0315 18.3067 62.1435 18.024 62.3675 17.8C62.5915 17.576 62.9435 17.4267 63.4235 17.352L65.8235 16.936V17.4C65.8235 17.8373 65.7168 18.2373 65.5035 18.6C65.3008 18.9627 65.0181 19.2507 64.6555 19.464C64.2928 19.6667 63.8661 19.768 63.3755 19.768C62.9808 19.768 62.6555 19.6667 62.3995 19.464C62.1541 19.2507 62.0315 18.9787 62.0315 18.648ZM69.7455 21H71.5535V8.888H69.7455V21ZM77.4113 21.096C77.5607 21.096 77.726 21.0853 77.9073 21.064C78.0887 21.0427 78.2487 21.0213 78.3873 21V19.448C78.1847 19.48 77.9873 19.496 77.7953 19.496C77.2727 19.496 76.8993 19.3733 76.6753 19.128C76.462 18.872 76.3553 18.5253 76.3553 18.088V13.976H78.3233V12.344H76.3553V10.36H74.5473V11.032C74.5473 11.4373 74.4353 11.7573 74.2113 11.992C73.9873 12.2267 73.6727 12.344 73.2673 12.344H73.0273V13.976H74.5473V18.168C74.5473 19.096 74.798 19.816 75.2993 20.328C75.8007 20.84 76.5047 21.096 77.4113 21.096ZM80.1517 21H81.9597V15.896C81.9597 15.256 82.141 14.7547 82.5037 14.392C82.8664 14.0187 83.325 13.832 83.8797 13.832C84.445 13.832 84.9037 14.0187 85.2557 14.392C85.6184 14.7547 85.7997 15.256 85.7997 15.896V21H87.5917V15.4C87.5917 14.76 87.4477 14.2 87.1597 13.72C86.8824 13.2293 86.4984 12.8453 86.0077 12.568C85.517 12.2907 84.957 12.152 84.3277 12.152C83.8157 12.152 83.357 12.248 82.9517 12.44C82.5464 12.632 82.2157 12.9093 81.9597 13.272V8.888H80.1517V21ZM92.4996 21H94.3876V12.664L100.34 21H101.86V9.08H99.9876V17.32L94.0196 9.08H92.4996V21ZM108.216 21.192C109.101 21.192 109.869 20.9893 110.52 20.584C111.181 20.1787 111.645 19.6667 111.912 19.048L110.44 18.328C110.226 18.6907 109.933 18.9947 109.56 19.24C109.197 19.4747 108.754 19.592 108.232 19.592C107.549 19.592 106.968 19.3787 106.488 18.952C106.008 18.5147 105.741 17.928 105.688 17.192H112.12C112.152 17.064 112.173 16.9253 112.184 16.776C112.194 16.6267 112.2 16.4827 112.2 16.344C112.2 15.5973 112.034 14.9093 111.704 14.28C111.384 13.64 110.914 13.128 110.296 12.744C109.688 12.3493 108.946 12.152 108.072 12.152C107.261 12.152 106.53 12.3493 105.88 12.744C105.24 13.128 104.733 13.6613 104.36 14.344C103.986 15.016 103.8 15.784 103.8 16.648C103.8 17.5013 103.986 18.2747 104.36 18.968C104.744 19.6507 105.266 20.1947 105.928 20.6C106.589 20.9947 107.352 21.192 108.216 21.192ZM108.072 13.672C108.68 13.672 109.192 13.864 109.608 14.248C110.024 14.632 110.248 15.1333 110.28 15.752H105.72C105.826 15.0907 106.098 14.5787 106.536 14.216C106.973 13.8533 107.485 13.672 108.072 13.672ZM117.708 21.096C117.858 21.096 118.023 21.0853 118.204 21.064C118.386 21.0427 118.546 21.0213 118.684 21V19.448C118.482 19.48 118.284 19.496 118.092 19.496C117.57 19.496 117.196 19.3733 116.972 19.128C116.759 18.872 116.652 18.5253 116.652 18.088V13.976H118.62V12.344H116.652V10.36H114.844V11.032C114.844 11.4373 114.732 11.7573 114.508 11.992C114.284 12.2267 113.97 12.344 113.564 12.344H113.324V13.976H114.844V18.168C114.844 19.096 115.095 19.816 115.596 20.328C116.098 20.84 116.802 21.096 117.708 21.096ZM122.545 21H124.193L126.241 14.84L128.273 21H129.905L132.897 12.344H130.977L129.025 18.232L127.057 12.344H125.409L123.425 18.232L121.489 12.344H119.569L122.545 21ZM138.156 21.192C138.988 21.192 139.745 21 140.428 20.616C141.11 20.2213 141.654 19.6827 142.06 19C142.465 18.3173 142.668 17.5387 142.668 16.664C142.668 15.7893 142.465 15.016 142.06 14.344C141.665 13.6613 141.126 13.128 140.444 12.744C139.761 12.3493 138.998 12.152 138.156 12.152C137.313 12.152 136.545 12.3493 135.852 12.744C135.169 13.128 134.625 13.6613 134.22 14.344C133.825 15.016 133.628 15.7893 133.628 16.664C133.628 17.528 133.83 18.3013 134.236 18.984C134.641 19.6667 135.185 20.2053 135.868 20.6C136.561 20.9947 137.324 21.192 138.156 21.192ZM138.156 19.512C137.654 19.512 137.201 19.3893 136.796 19.144C136.401 18.8987 136.086 18.5627 135.852 18.136C135.628 17.6987 135.516 17.208 135.516 16.664C135.516 16.12 135.628 15.6347 135.852 15.208C136.086 14.7813 136.401 14.4453 136.796 14.2C137.201 13.9547 137.654 13.832 138.156 13.832C138.657 13.832 139.105 13.9547 139.5 14.2C139.905 14.4453 140.22 14.7813 140.444 15.208C140.678 15.6347 140.796 16.12 140.796 16.664C140.796 17.208 140.678 17.6987 140.444 18.136C140.22 18.5627 139.905 18.8987 139.5 19.144C139.105 19.3893 138.657 19.512 138.156 19.512ZM144.433 21H146.241V16.008C146.241 15.3253 146.422 14.8027 146.785 14.44C147.158 14.0667 147.644 13.88 148.241 13.88H148.993V12.232H148.465C147.942 12.232 147.484 12.328 147.089 12.52C146.694 12.712 146.385 13.0213 146.161 13.448V12.344H144.433V21ZM150.23 21H152.038V18.376L153.334 17L155.99 21H158.07L154.662 15.816L157.926 12.344H155.67L152.038 16.104V8.888H150.23V21Z" fill="#150867"/>
</svg>
