<svg width="160" height="28" viewBox="0 0 160 28" fill="none" xmlns="http://www.w3.org/2000/svg">
<path d="M11.7063 1.27361C9.3937 1.80884 7.66683 3.10147 6.3944 5.24239C5.99045 5.92909 3.41529 10.4331 3.12243 10.9784C3.07194 11.0895 2.82957 11.4935 2.6074 11.8873C2.04187 12.8467 0.920923 14.8361 0.698752 15.2603C0.607864 15.442 0.405891 15.9672 0.26451 16.4216C0.0322406 17.1487 0.00194465 17.4012 0.00194465 18.8049C-0.00815401 20.2692 0.0120433 20.4308 0.284707 21.2791C0.799739 22.8443 1.76921 24.2683 2.98105 25.2175C3.30421 25.47 3.58697 25.672 3.61726 25.672C3.65766 25.672 3.85963 25.7831 4.0818 25.9244C4.30397 26.0658 4.90989 26.3284 5.42492 26.5001C6.29341 26.803 6.44489 26.8232 7.76781 26.8333C9.43409 26.8333 10.0097 26.702 11.4235 26.0153C12.9181 25.2781 13.9684 24.2077 15.0388 22.3394C15.2206 22.0365 15.7054 21.1781 16.1295 20.4409C16.5637 19.7037 16.9071 19.0775 16.9071 19.0573C16.9071 19.0271 17.0081 18.8352 17.1394 18.6231C17.5534 17.9667 18.0886 17.0578 18.3916 16.4822C18.5532 16.1792 18.7552 15.8157 18.8359 15.6743C19.1591 15.1593 20.3103 13.0789 20.5325 12.6144C21.0677 11.5137 21.2798 10.3624 21.2293 8.8577C21.1586 6.6461 20.4012 4.89903 18.8359 3.36403C18.0079 2.54604 16.9879 1.91993 15.8164 1.51598C15.059 1.25342 14.7561 1.21302 13.625 1.17263C12.7263 1.15243 12.1203 1.18273 11.7063 1.27361ZM14.9177 2.79851C16.2103 3.13177 17.6241 4.06084 18.3815 5.08081C19.0581 5.98969 19.2399 6.34314 19.5327 7.3732C20.0781 9.25155 19.8357 10.8471 18.6946 12.8972C18.3411 13.5334 17.614 14.7957 17.5635 14.8462C17.5534 14.8563 17.0384 14.5735 16.4224 14.21C15.8063 13.8464 15.2812 13.5536 15.261 13.5536C15.2408 13.5536 14.8167 13.3011 14.3218 12.9982C13.827 12.6952 12.8575 12.1297 12.1607 11.7358C11.4639 11.342 10.6762 10.8774 10.3935 10.7058C9.81784 10.3523 9.42399 10.3119 9.13113 10.5745C8.86857 10.8067 8.85847 11.443 9.11093 11.655C9.20182 11.7358 10.2824 12.3821 11.5043 13.0991C16.9374 16.2701 16.796 16.1792 16.7354 16.361C16.695 16.4519 16.594 16.6438 16.5032 16.7851C16.4022 16.9265 16.0083 17.6031 15.6246 18.2999C15.2307 18.9968 14.746 19.8551 14.544 20.1985C14.342 20.5519 14.1805 20.865 14.1805 20.8852C14.1805 20.9054 14.0189 21.168 13.827 21.4709C13.6351 21.7739 13.4736 22.0566 13.4736 22.097C13.4736 22.1374 13.2918 22.4101 13.0595 22.703C12.6253 23.2685 12.5647 23.2786 12.0597 22.9453C11.676 22.6828 9.63606 21.5012 8.67669 20.9862C8.56561 20.9256 8.36363 20.8044 8.22225 20.7135C6.79834 19.8046 4.69782 18.6736 4.45545 18.6736C4.0818 18.6736 3.74855 19.017 3.74855 19.4007C3.74855 19.7945 3.86973 19.9359 4.66752 20.3904C5.03108 20.6024 5.52591 20.8852 5.75818 21.0266C6.60647 21.5214 7.75771 22.198 8.28284 22.4909C10.6863 23.8744 11.2418 24.2178 11.2518 24.3187C11.2518 24.4803 10.0097 25.0257 9.27251 25.1973C6.62666 25.7932 3.90003 24.6419 2.42562 22.3091C1.04211 20.1177 1.0724 17.4921 2.49631 15.1391C2.73868 14.7351 2.96085 14.3312 3.00125 14.2302C3.13253 13.8868 3.3749 13.9272 4.31407 14.4827C4.8291 14.7957 5.80867 15.3713 6.50548 15.7753C7.20229 16.1792 7.96979 16.6337 8.22225 16.7851C10.3935 18.098 11.2115 18.512 11.4942 18.4413C11.9689 18.3201 12.1607 17.482 11.7669 17.1689C11.5851 17.0073 10.5449 16.3913 7.71732 14.7654C4.71802 13.0385 3.99091 12.6043 3.98082 12.5336C3.98082 12.4427 7.81831 5.74732 7.95969 5.59584C8.09097 5.45446 8.12127 5.47465 9.80774 6.50472C10.1511 6.71679 10.4541 6.88847 10.4743 6.88847C10.5045 6.88847 10.9287 7.13083 11.4235 7.43379C11.9184 7.72665 12.5243 8.08011 12.7666 8.22149C13.0191 8.36287 13.6351 8.71632 14.13 9.00918C15.7458 9.94836 15.8871 10.019 16.0992 10.019C16.4123 10.019 16.8061 9.57471 16.8061 9.22126C16.8061 8.8981 16.5536 8.65573 15.7256 8.19119C15.4933 8.05991 14.8874 7.69636 14.3723 7.3934C13.8573 7.09044 13.312 6.76728 13.1605 6.68649C13.009 6.6057 12.5445 6.34314 12.1405 6.11087C9.81784 4.75765 9.18163 4.3739 9.15133 4.27291C9.07054 4.02045 10.7469 3.07117 11.7568 2.80861C12.494 2.61673 14.1906 2.60664 14.9177 2.79851Z" fill="#150867"/>
<path d="M32.2926 21.192C32.8899 21.192 33.4392 21.08 33.9406 20.856C34.4526 20.632 34.8686 20.3067 35.1886 19.88V21H36.9006V8.888H35.1086V13.352C34.7886 12.9787 34.3832 12.6853 33.8926 12.472C33.4126 12.2587 32.8739 12.152 32.2766 12.152C31.4552 12.152 30.7139 12.3493 30.0526 12.744C29.4019 13.1387 28.8846 13.6773 28.5006 14.36C28.1272 15.0427 27.9406 15.8107 27.9406 16.664C27.9406 17.5173 28.1272 18.2853 28.5006 18.968C28.8846 19.6507 29.4019 20.1947 30.0526 20.6C30.7139 20.9947 31.4606 21.192 32.2926 21.192ZM32.4686 19.512C31.9566 19.512 31.4979 19.3893 31.0926 19.144C30.6979 18.8987 30.3886 18.5627 30.1646 18.136C29.9406 17.6987 29.8286 17.208 29.8286 16.664C29.8286 16.12 29.9406 15.6347 30.1646 15.208C30.3992 14.7813 30.7139 14.4453 31.1086 14.2C31.5139 13.9547 31.9672 13.832 32.4686 13.832C32.9699 13.832 33.4179 13.9547 33.8126 14.2C34.2179 14.4453 34.5326 14.7813 34.7566 15.208C34.9912 15.6347 35.1086 16.12 35.1086 16.664C35.1086 17.208 34.9912 17.6987 34.7566 18.136C34.5326 18.5627 34.2179 18.8987 33.8126 19.144C33.4179 19.3893 32.9699 19.512 32.4686 19.512ZM39.1873 21H41.0753V16.008H46.5953V21H48.4673V9.08H46.5953V14.328H41.0753V9.08H39.1873V21ZM54.8253 21.192C55.7106 21.192 56.4786 20.9893 57.1293 20.584C57.7906 20.1787 58.2546 19.6667 58.5213 19.048L57.0493 18.328C56.836 18.6907 56.5426 18.9947 56.1693 19.24C55.8066 19.4747 55.364 19.592 54.8413 19.592C54.1586 19.592 53.5773 19.3787 53.0973 18.952C52.6173 18.5147 52.3506 17.928 52.2973 17.192H58.7293C58.7613 17.064 58.7826 16.9253 58.7933 16.776C58.804 16.6267 58.8093 16.4827 58.8093 16.344C58.8093 15.5973 58.644 14.9093 58.3133 14.28C57.9933 13.64 57.524 13.128 56.9053 12.744C56.2973 12.3493 55.556 12.152 54.6813 12.152C53.8706 12.152 53.14 12.3493 52.4893 12.744C51.8493 13.128 51.3426 13.6613 50.9693 14.344C50.596 15.016 50.4093 15.784 50.4093 16.648C50.4093 17.5013 50.596 18.2747 50.9693 18.968C51.3533 19.6507 51.876 20.1947 52.5373 20.6C53.1986 20.9947 53.9613 21.192 54.8253 21.192ZM54.6813 13.672C55.2893 13.672 55.8013 13.864 56.2173 14.248C56.6333 14.632 56.8573 15.1333 56.8893 15.752H52.3293C52.436 15.0907 52.708 14.5787 53.1453 14.216C53.5826 13.8533 54.0946 13.672 54.6813 13.672ZM63.0877 21.192C63.685 21.192 64.2237 21.0907 64.7037 20.888C65.1837 20.6747 65.5837 20.376 65.9037 19.992V21H67.6317V15.176C67.6317 14.5787 67.4823 14.056 67.1837 13.608C66.885 13.1493 66.4743 12.792 65.9517 12.536C65.429 12.28 64.8263 12.152 64.1437 12.152C63.5997 12.152 63.0823 12.248 62.5917 12.44C62.1117 12.6213 61.6903 12.872 61.3277 13.192C60.9757 13.512 60.7143 13.8853 60.5437 14.312L62.0477 15.064C62.2183 14.6587 62.4797 14.3333 62.8317 14.088C63.1943 13.8427 63.6157 13.72 64.0957 13.72C64.6183 13.72 65.0343 13.8587 65.3437 14.136C65.6637 14.4027 65.8237 14.7493 65.8237 15.176V15.512L63.0717 15.96C62.069 16.1307 61.3277 16.4613 60.8477 16.952C60.3783 17.432 60.1437 18.0187 60.1437 18.712C60.1437 19.4587 60.4157 20.0613 60.9597 20.52C61.5037 20.968 62.213 21.192 63.0877 21.192ZM62.0317 18.648C62.0317 18.3067 62.1437 18.024 62.3677 17.8C62.5917 17.576 62.9437 17.4267 63.4237 17.352L65.8237 16.936V17.4C65.8237 17.8373 65.717 18.2373 65.5037 18.6C65.301 18.9627 65.0183 19.2507 64.6557 19.464C64.293 19.6667 63.8663 19.768 63.3757 19.768C62.981 19.768 62.6557 19.6667 62.3997 19.464C62.1543 19.2507 62.0317 18.9787 62.0317 18.648ZM69.7457 21H71.5537V8.888H69.7457V21ZM77.4116 21.096C77.5609 21.096 77.7262 21.0853 77.9076 21.064C78.0889 21.0427 78.2489 21.0213 78.3876 21V19.448C78.1849 19.48 77.9876 19.496 77.7956 19.496C77.2729 19.496 76.8996 19.3733 76.6756 19.128C76.4622 18.872 76.3556 18.5253 76.3556 18.088V13.976H78.3236V12.344H76.3556V10.36H74.5476V11.032C74.5476 11.4373 74.4356 11.7573 74.2116 11.992C73.9876 12.2267 73.6729 12.344 73.2676 12.344H73.0276V13.976H74.5476V18.168C74.5476 19.096 74.7982 19.816 75.2996 20.328C75.8009 20.84 76.5049 21.096 77.4116 21.096ZM80.1519 21H81.9599V15.896C81.9599 15.256 82.1413 14.7547 82.5039 14.392C82.8666 14.0187 83.3253 13.832 83.8799 13.832C84.4453 13.832 84.9039 14.0187 85.2559 14.392C85.6186 14.7547 85.7999 15.256 85.7999 15.896V21H87.5919V15.4C87.5919 14.76 87.4479 14.2 87.1599 13.72C86.8826 13.2293 86.4986 12.8453 86.0079 12.568C85.5173 12.2907 84.9573 12.152 84.3279 12.152C83.8159 12.152 83.3573 12.248 82.9519 12.44C82.5466 12.632 82.2159 12.9093 81.9599 13.272V8.888H80.1519V21ZM92.4998 21H94.3878V12.664L100.34 21H101.86V9.08H99.9878V17.32L94.0198 9.08H92.4998V21ZM108.216 21.192C109.101 21.192 109.869 20.9893 110.52 20.584C111.181 20.1787 111.645 19.6667 111.912 19.048L110.44 18.328C110.227 18.6907 109.933 18.9947 109.56 19.24C109.197 19.4747 108.755 19.592 108.232 19.592C107.549 19.592 106.968 19.3787 106.488 18.952C106.008 18.5147 105.741 17.928 105.688 17.192H112.12C112.152 17.064 112.173 16.9253 112.184 16.776C112.195 16.6267 112.2 16.4827 112.2 16.344C112.2 15.5973 112.035 14.9093 111.704 14.28C111.384 13.64 110.915 13.128 110.296 12.744C109.688 12.3493 108.947 12.152 108.072 12.152C107.261 12.152 106.531 12.3493 105.88 12.744C105.24 13.128 104.733 13.6613 104.36 14.344C103.987 15.016 103.8 15.784 103.8 16.648C103.8 17.5013 103.987 18.2747 104.36 18.968C104.744 19.6507 105.267 20.1947 105.928 20.6C106.589 20.9947 107.352 21.192 108.216 21.192ZM108.072 13.672C108.68 13.672 109.192 13.864 109.608 14.248C110.024 14.632 110.248 15.1333 110.28 15.752H105.72C105.827 15.0907 106.099 14.5787 106.536 14.216C106.973 13.8533 107.485 13.672 108.072 13.672ZM117.708 21.096C117.858 21.096 118.023 21.0853 118.204 21.064C118.386 21.0427 118.546 21.0213 118.684 21V19.448C118.482 19.48 118.284 19.496 118.092 19.496C117.57 19.496 117.196 19.3733 116.972 19.128C116.759 18.872 116.652 18.5253 116.652 18.088V13.976H118.62V12.344H116.652V10.36H114.844V11.032C114.844 11.4373 114.732 11.7573 114.508 11.992C114.284 12.2267 113.97 12.344 113.564 12.344H113.324V13.976H114.844V18.168C114.844 19.096 115.095 19.816 115.596 20.328C116.098 20.84 116.802 21.096 117.708 21.096ZM122.545 21H124.193L126.241 14.84L128.273 21H129.905L132.897 12.344H130.977L129.025 18.232L127.057 12.344H125.409L123.425 18.232L121.489 12.344H119.569L122.545 21ZM138.156 21.192C138.988 21.192 139.745 21 140.428 20.616C141.111 20.2213 141.655 19.6827 142.06 19C142.465 18.3173 142.668 17.5387 142.668 16.664C142.668 15.7893 142.465 15.016 142.06 14.344C141.665 13.6613 141.127 13.128 140.444 12.744C139.761 12.3493 138.999 12.152 138.156 12.152C137.313 12.152 136.545 12.3493 135.852 12.744C135.169 13.128 134.625 13.6613 134.22 14.344C133.825 15.016 133.628 15.7893 133.628 16.664C133.628 17.528 133.831 18.3013 134.236 18.984C134.641 19.6667 135.185 20.2053 135.868 20.6C136.561 20.9947 137.324 21.192 138.156 21.192ZM138.156 19.512C137.655 19.512 137.201 19.3893 136.796 19.144C136.401 18.8987 136.087 18.5627 135.852 18.136C135.628 17.6987 135.516 17.208 135.516 16.664C135.516 16.12 135.628 15.6347 135.852 15.208C136.087 14.7813 136.401 14.4453 136.796 14.2C137.201 13.9547 137.655 13.832 138.156 13.832C138.657 13.832 139.105 13.9547 139.5 14.2C139.905 14.4453 140.22 14.7813 140.444 15.208C140.679 15.6347 140.796 16.12 140.796 16.664C140.796 17.208 140.679 17.6987 140.444 18.136C140.22 18.5627 139.905 18.8987 139.5 19.144C139.105 19.3893 138.657 19.512 138.156 19.512ZM144.433 21H146.241V16.008C146.241 15.3253 146.423 14.8027 146.785 14.44C147.159 14.0667 147.644 13.88 148.241 13.88H148.993V12.232H148.465C147.943 12.232 147.484 12.328 147.089 12.52C146.695 12.712 146.385 13.0213 146.161 13.448V12.344H144.433V21ZM150.23 21H152.038V18.376L153.334 17L155.99 21H158.07L154.662 15.816L157.926 12.344H155.67L152.038 16.104V8.888H150.23V21Z" fill="#150867"/>
</svg>
