<svg width="16" height="17" viewBox="0 0 16 17" fill="none" xmlns="http://www.w3.org/2000/svg">
<g clip-path="url(#clip0_695_217)">
<path d="M8.456 3.186C7.36627 3.09252 6.27415 3.33634 5.32764 3.88441C4.38114 4.43248 3.62602 5.2583 3.16463 6.24996C2.70324 7.24161 2.55788 8.35113 2.74827 9.42817C2.93865 10.5052 3.45556 11.4977 4.22894 12.2711C5.00233 13.0444 5.99479 13.5614 7.07183 13.7517C8.14887 13.9421 9.25839 13.7968 10.25 13.3354C11.2417 12.874 12.0675 12.1189 12.6156 11.1724C13.1637 10.2259 13.4075 9.13373 13.314 8.044C13.2673 7.48387 13.1316 6.93476 12.912 6.41733L13.912 5.416C14.4099 6.36759 14.6689 7.42601 14.6667 8.5C14.6667 12.182 11.682 15.1667 8 15.1667C4.318 15.1667 1.33333 12.182 1.33333 8.5C1.33333 4.818 4.318 1.83333 8 1.83333C9.07383 1.83238 10.1319 2.0913 11.084 2.588L10.0833 3.588C9.56589 3.3685 9.01679 3.2328 8.45667 3.186H8.456ZM13.6567 1.9L14.6 2.84333L8.472 8.97133L7.53067 8.97333L7.52933 8.02867L13.6567 1.9Z" fill="#150867"/>
</g>
<defs>
<clipPath id="clip0_695_217">
<rect width="16" height="16" fill="white" transform="translate(0 0.5)"/>
</clipPath>
</defs>
</svg>
