<svg width="212" height="38" viewBox="0 0 212 38" fill="none" xmlns="http://www.w3.org/2000/svg">
<path d="M3.69124 21.6884L0 37.5823H26.4046L28.521 28.3677H14.5189L15.8231 22.6635H28.767L28.9885 21.6884H26.4785L28.3733 13.4733H15.454L16.1922 10.353H30.2435L32.3598 1.11407H6.00441L1.1812 21.6884H3.69124Z" fill="white"/>
<path d="M34.0332 21.5909L30.3174 37.4604H56.279L58.3954 28.2459H44.7378L46.3619 21.5909H44.0734L48.8474 1.16283H36.494L31.7692 21.5909H34.0332Z" fill="white"/>
<path d="M61.6683 21.6884L57.977 37.5823H84.3817L86.498 28.3677H72.4959L73.8001 22.6635H86.744L86.9655 21.6884H84.4555L86.3503 13.4733H73.431L74.1692 10.353H88.2205L90.3369 1.11407H63.9814L59.1582 21.6884H61.6683Z" fill="white"/>
<path d="M118.587 20.9083H116.372L127.668 0.992188H115.117C111.82 6.7452 108.818 12.7907 105.496 18.5681L103.994 0.992188H91.1243L93.2406 20.9083H95.5046L97.2518 37.5823H109.138L118.587 20.9083Z" fill="white"/>
<path d="M123.706 21.5909L114.748 37.4604H127.2C128.43 35.169 129.587 32.8775 130.817 30.6104H137.831L138.348 37.4604H151.021L149.47 21.5909H146.714L144.721 1.13845H132.442L120.876 21.5909H123.706ZM137.511 22.1028H134.115L134.312 21.5909H131.58L134.878 13.4977L134.829 21.5909H137.511V22.1028Z" fill="white"/>
<path d="M171.052 20.9083H168.862L171.273 10.2311H181.092L183.184 0.992188H151.242L149.077 10.2311H158.92L156.435 20.9083H158.674L154.835 37.5823H167.311L171.052 20.9083Z" fill="white"/>
<path d="M183.331 21.6884L179.64 37.5823H206.045L208.161 28.3677H194.159L195.463 22.6635H208.407L208.629 21.6884H206.119L208.013 13.4733H195.094L195.832 10.353H209.884L212 1.11407H185.645L180.821 21.6884H183.331Z" fill="white"/>
</svg>
