<svg width="21" height="20" viewBox="0 0 21 20" fill="none" xmlns="http://www.w3.org/2000/svg">
<g clip-path="url(#clip0_1344_6633)">
<path d="M16.6667 15.5558L17 16C17.0464 16.0619 17.0747 16.1355 17.0816 16.2126C17.0886 16.2896 17.074 16.3671 17.0393 16.4363C17.0047 16.5055 16.9515 16.5638 16.8857 16.6044C16.8199 16.6451 16.744 16.6667 16.6667 16.6667H3.33333C3.25595 16.6667 3.1801 16.6451 3.11428 16.6044C3.04846 16.5638 2.99526 16.5055 2.96066 16.4363C2.92605 16.3671 2.9114 16.2896 2.91835 16.2126C2.9253 16.1355 2.95357 16.0619 3 16L3.33333 15.5558V8.33333C3.33333 6.56522 4.03571 4.86953 5.28595 3.61929C6.5362 2.36905 8.23189 1.66667 10 1.66667C11.7681 1.66667 13.4638 2.36905 14.714 3.61929C15.9643 4.86953 16.6667 6.56522 16.6667 8.33333V15.5558ZM7.91667 17.5H12.0833C12.0833 18.0525 11.8638 18.5824 11.4731 18.9731C11.0824 19.3638 10.5525 19.5833 10 19.5833C9.44747 19.5833 8.91756 19.3638 8.52686 18.9731C8.13616 18.5824 7.91667 18.0525 7.91667 17.5Z" fill="#1D1843"/>
</g>
<circle cx="15.8333" cy="5" r="5" fill="#F60808"/>
<defs>
<clipPath id="clip0_1344_6633">
<rect width="20" height="20" fill="white"/>
</clipPath>
</defs>
</svg>
