<svg width="31" height="30" viewBox="0 0 31 30" fill="none" xmlns="http://www.w3.org/2000/svg">
<path d="M5.31982 23.75H25.3198V17.5H27.8198V25C27.8198 25.3315 27.6881 25.6495 27.4537 25.8839C27.2193 26.1183 26.9013 26.25 26.5698 26.25H4.06982C3.7383 26.25 3.42036 26.1183 3.18594 25.8839C2.95152 25.6495 2.81982 25.3315 2.81982 25V17.5H5.31982V23.75ZM15.3198 12.5H11.5698C10.3862 12.4992 9.21914 12.7789 8.16446 13.3162C7.10978 13.8536 6.19747 14.6332 5.50232 15.5912C5.94604 13.3131 7.16811 11.2601 8.95917 9.78397C10.7502 8.30783 12.9989 7.5004 15.3198 7.5V2.5L25.3198 10L15.3198 17.5V12.5Z" fill="#1D1843"/>
</svg>
