<svg width="15" height="13" viewBox="0 0 15 13" fill="none" xmlns="http://www.w3.org/2000/svg">
<path fill-rule="evenodd" clip-rule="evenodd" d="M3.83353 8.53388C3.82801 8.76328 3.97936 8.96699 4.20059 9.02793C4.42181 9.08888 4.65613 8.99142 4.76887 8.79155L5.37041 7.72521C6.0838 6.46057 7.50393 5.76773 8.93973 5.98382L9.03928 5.99881C9.05717 6.45071 9.08257 6.90239 9.11547 7.35366L9.16069 7.97408C9.19747 8.47863 9.76005 8.76068 10.1863 8.48829C11.5848 7.59471 12.8005 6.44332 13.7687 5.09548L14.0728 4.67219C14.198 4.49787 14.198 4.26309 14.0728 4.08877L13.7687 3.66548C12.8005 2.31764 11.5848 1.16625 10.1863 0.272674C9.76006 0.000285521 9.19747 0.282332 9.16069 0.786878L9.11547 1.4073C9.08895 1.77112 9.0673 2.13521 9.05053 2.49946L8.37173 2.49946C5.92858 2.49946 3.93174 4.44886 3.87302 6.8913L3.83353 8.53388ZM9.08856 4.99496C7.47569 4.75222 5.87821 5.40154 4.88868 6.65384C5.06309 4.8784 6.55955 3.49946 8.37172 3.49946L9.53086 3.49946C9.80035 3.49946 10.0214 3.28589 10.0306 3.01656C10.0481 2.50402 10.0755 1.99174 10.1128 1.48001L10.1164 1.43037C11.2121 2.20481 12.1722 3.15707 12.9566 4.2489L13.0511 4.38048L12.9566 4.51206C12.1722 5.60389 11.2121 6.55615 10.1164 7.33059L10.1128 7.28095C10.0708 6.70503 10.0414 6.12843 10.0244 5.55155C10.0173 5.3098 9.83822 5.10779 9.59907 5.07179L9.08856 4.99496Z" fill="#5D64FF"/>
<path d="M12.0943 10.1076C12.1729 9.4354 12.2284 8.76117 12.2608 8.0861C12.2643 8.01303 12.2974 7.94456 12.3523 7.89614C12.5945 7.6823 12.8292 7.46009 13.056 7.22992C13.1413 7.14334 13.2903 7.20388 13.2877 7.32538C13.2669 8.29334 13.2002 9.26056 13.0875 10.2238C12.9298 11.5721 11.8469 12.6288 10.5055 12.7787C8.19449 13.037 5.8056 13.037 3.49455 12.7787C2.15318 12.6288 1.07029 11.5721 0.912591 10.2238C0.636233 7.86091 0.636233 5.47388 0.912591 3.11102C1.07029 1.76266 2.15318 0.70599 3.49455 0.556072C5.02187 0.385372 6.58318 0.327483 8.13356 0.382406C8.26409 0.387031 8.35395 0.514816 8.33768 0.644412C8.33429 0.671402 8.33158 0.6987 8.32957 0.726293L8.29538 1.19551C8.28753 1.30323 8.19557 1.3852 8.08762 1.38141C6.58957 1.32885 5.08083 1.38501 3.60563 1.54988C2.71889 1.64899 2.00856 2.34873 1.90582 3.22718C1.63849 5.51287 1.63849 7.82192 1.90582 10.1076C2.00856 10.9861 2.71889 11.6858 3.60563 11.7849C5.84286 12.0349 8.15724 12.0349 10.3945 11.7849C11.2812 11.6858 11.9915 10.9861 12.0943 10.1076Z" fill="#5D64FF"/>
</svg>
