<svg width="16" height="16" viewBox="0 0 16 16" fill="none" xmlns="http://www.w3.org/2000/svg">
<path d="M6.55333 5.86L5.33333 6.304V8.66667H4V5.36667H4.01L7.522 4.088C7.68467 4.026 7.862 3.99467 8.04333 4.00067C8.40567 4.0097 8.75619 4.1314 9.04617 4.34886C9.33614 4.56631 9.55116 4.8687 9.66133 5.214C9.78533 5.60267 9.89867 5.86533 10.0013 6.002C10.3116 6.41575 10.714 6.75149 11.1767 6.98258C11.6394 7.21368 12.1495 7.33377 12.6667 7.33333V8.66667C11.9782 8.66742 11.2981 8.51552 10.6754 8.22191C10.0527 7.9283 9.5028 7.50028 9.06533 6.96867L8.60067 9.606L10 10.78V15.3333H8.66667V11.4013L7.15333 10.132L6.66867 12.8833L2.07267 12.0733L2.30467 10.76L5.58733 11.3387L6.55333 5.86ZM9 3.66667C8.64638 3.66667 8.30724 3.52619 8.05719 3.27614C7.80714 3.02609 7.66667 2.68696 7.66667 2.33333C7.66667 1.97971 7.80714 1.64057 8.05719 1.39052C8.30724 1.14048 8.64638 1 9 1C9.35362 1 9.69276 1.14048 9.94281 1.39052C10.1929 1.64057 10.3333 1.97971 10.3333 2.33333C10.3333 2.68696 10.1929 3.02609 9.94281 3.27614C9.69276 3.52619 9.35362 3.66667 9 3.66667Z" fill="#09090A"/>
</svg>
