<svg width="16" height="17" viewBox="0 0 16 17" fill="none" xmlns="http://www.w3.org/2000/svg">
<g clip-path="url(#clip0_831_1387)">
<path d="M8.70667 5.90667L9.65 6.85C10.0834 7.28335 10.4272 7.79782 10.6617 8.36403C10.8963 8.93025 11.017 9.53713 11.017 10.15C11.017 10.7629 10.8963 11.3697 10.6617 11.936C10.4272 12.5022 10.0834 13.0167 9.65 13.45L9.414 13.6853C8.53879 14.5605 7.35174 15.0522 6.114 15.0522C4.87626 15.0522 3.68921 14.5605 2.814 13.6853C1.93879 12.8101 1.4471 11.6231 1.4471 10.3853C1.4471 9.14759 1.93879 7.96055 2.814 7.08533L3.75733 8.02867C3.44558 8.3377 3.19794 8.70527 3.02862 9.11027C2.8593 9.51527 2.77165 9.94972 2.77069 10.3887C2.76972 10.8277 2.85548 11.2625 3.02302 11.6682C3.19056 12.074 3.43659 12.4426 3.74699 12.753C4.05739 13.0634 4.42603 13.3094 4.83177 13.477C5.23751 13.6445 5.67234 13.7303 6.11131 13.7293C6.55028 13.7284 6.98473 13.6407 7.38973 13.4714C7.79473 13.3021 8.1623 13.0544 8.47133 12.7427L8.70733 12.5067C9.33224 11.8816 9.68329 11.0339 9.68329 10.15C9.68329 9.26612 9.33224 8.41842 8.70733 7.79333L7.764 6.85L8.70733 5.90733L8.70667 5.90667ZM12.2427 8.97133C12.5544 8.6623 12.8021 8.29473 12.9714 7.88973C13.1407 7.48473 13.2284 7.05028 13.2293 6.61131C13.2303 6.17234 13.1445 5.73751 12.977 5.33177C12.8094 4.92603 12.5634 4.55739 12.253 4.24699C11.9426 3.93659 11.574 3.69056 11.1682 3.52302C10.7625 3.35548 10.3277 3.26972 9.88869 3.27069C9.44972 3.27165 9.01527 3.3593 8.61027 3.52862C8.20527 3.69794 7.8377 3.94558 7.52867 4.25733L7.29267 4.49333C6.66776 5.11843 6.31671 5.96612 6.31671 6.85C6.31671 7.73388 6.66776 8.58157 7.29267 9.20667L8.236 10.15L7.29267 11.0927L6.35 10.15C5.91661 9.71665 5.57282 9.20218 5.33827 8.63597C5.10372 8.06975 4.983 7.46288 4.983 6.85C4.983 6.23712 5.10372 5.63025 5.33827 5.06403C5.57282 4.49782 5.91661 3.98335 6.35 3.55L6.586 3.31467C7.46121 2.43945 8.64826 1.94776 9.886 1.94776C11.1237 1.94776 12.3108 2.43945 13.186 3.31467C14.0612 4.18988 14.5529 5.37693 14.5529 6.61467C14.5529 7.85241 14.0612 9.03945 13.186 9.91467L12.2427 8.97133Z" fill="#09090A"/>
</g>
<defs>
<clipPath id="clip0_831_1387">
<rect width="16" height="16" fill="white" transform="translate(0 0.5)"/>
</clipPath>
</defs>
</svg>
