<svg width="16" height="16" viewBox="0 0 16 16" fill="none" xmlns="http://www.w3.org/2000/svg">
<path d="M8 2.66667C12.05 2.66667 15.3333 4.45733 15.3333 6.66667V9.33333C15.3333 11.5427 12.05 13.3333 8 13.3333C4.022 13.3333 0.784 11.606 0.67 9.45133L0.666667 9.33333V6.66667C0.666667 4.45733 3.95 2.66667 8 2.66667ZM8 10.6667C5.52 10.6667 3.32667 9.99533 2 8.96667V9.33333C2 10.588 4.58867 12 8 12C11.34 12 13.892 10.6467 13.9967 9.412L14 9.33333L14.0007 8.96667C12.674 9.99467 10.4807 10.6667 8 10.6667ZM8 4C4.58867 4 2 5.412 2 6.66667C2 7.92133 4.58867 9.33333 8 9.33333C11.4113 9.33333 14 7.92133 14 6.66667C14 5.412 11.4113 4 8 4Z" fill="#09090A"/>
</svg>
