<svg width="17" height="16" viewBox="0 0 17 16" fill="none" xmlns="http://www.w3.org/2000/svg">
<path d="M8.5 14.6667C4.818 14.6667 1.83333 11.682 1.83333 8C1.83333 4.318 4.818 1.33333 8.5 1.33333C12.182 1.33333 15.1667 4.318 15.1667 8C15.1667 11.682 12.182 14.6667 8.5 14.6667ZM8.5 13.3333C9.91449 13.3333 11.271 12.7714 12.2712 11.7712C13.2714 10.771 13.8333 9.41449 13.8333 8C13.8333 6.58551 13.2714 5.22896 12.2712 4.22876C11.271 3.22857 9.91449 2.66667 8.5 2.66667C7.08551 2.66667 5.72896 3.22857 4.72876 4.22876C3.72857 5.22896 3.16667 6.58551 3.16667 8C3.16667 9.41449 3.72857 10.771 4.72876 11.7712C5.72896 12.7714 7.08551 13.3333 8.5 13.3333ZM7.83333 4.66667H9.16667V6H7.83333V4.66667ZM7.83333 7.33333H9.16667V11.3333H7.83333V7.33333Z" fill="#09090A"/>
</svg>
