<svg width="16" height="16" viewBox="0 0 16 16" fill="none" xmlns="http://www.w3.org/2000/svg">
<path d="M2.66667 10H4V13.3333H12V2.66667H4V6H2.66667V2C2.66667 1.82319 2.7369 1.65362 2.86193 1.5286C2.98695 1.40357 3.15652 1.33333 3.33333 1.33333H12.6667C12.8435 1.33333 13.013 1.40357 13.1381 1.5286C13.2631 1.65362 13.3333 1.82319 13.3333 2V14C13.3333 14.1768 13.2631 14.3464 13.1381 14.4714C13.013 14.5964 12.8435 14.6667 12.6667 14.6667H3.33333C3.15652 14.6667 2.98695 14.5964 2.86193 14.4714C2.7369 14.3464 2.66667 14.1768 2.66667 14V10ZM6.66667 7.33333V5.33333L10 8L6.66667 10.6667V8.66667H1.33333V7.33333H6.66667Z" fill="#960427"/>
</svg>
