<svg width="17" height="16" viewBox="0 0 17 16" fill="none" xmlns="http://www.w3.org/2000/svg">
<path d="M3.05992 11.3333C2.7781 10.846 2.55903 10.325 2.40792 9.78267C2.73679 9.6154 3.01298 9.36042 3.20594 9.04593C3.39889 8.73144 3.5011 8.36971 3.50123 8.00074C3.50137 7.63178 3.39944 7.26997 3.20672 6.95533C3.014 6.6407 2.738 6.38551 2.40925 6.218C2.71061 5.12832 3.2844 4.1333 4.07659 3.32667C4.38598 3.52782 4.745 3.63944 5.1139 3.64919C5.48281 3.65893 5.84722 3.56642 6.16681 3.38189C6.48639 3.19736 6.74869 2.928 6.92467 2.60363C7.10065 2.27926 7.18346 1.91252 7.16392 1.544C8.25866 1.26108 9.40741 1.26154 10.5019 1.54533C10.4826 1.91384 10.5655 2.28053 10.7416 2.60481C10.9178 2.92908 11.1802 3.19832 11.4998 3.38271C11.8195 3.5671 12.1839 3.65946 12.5528 3.64957C12.9217 3.63968 13.2806 3.52792 13.5899 3.32667C13.9759 3.72 14.3186 4.16733 14.6066 4.66667C14.8953 5.166 15.1113 5.68667 15.2586 6.21733C14.9297 6.3846 14.6535 6.63958 14.4606 6.95407C14.2676 7.26856 14.1654 7.63029 14.1653 7.99926C14.1651 8.36822 14.2671 8.73003 14.4598 9.04467C14.6525 9.3593 14.9285 9.61449 15.2573 9.782C14.9559 10.8717 14.3821 11.8667 13.5899 12.6733C13.2805 12.4722 12.9215 12.3606 12.5526 12.3508C12.1837 12.3411 11.8193 12.4336 11.4997 12.6181C11.1801 12.8026 10.9178 13.072 10.7418 13.3964C10.5659 13.7207 10.483 14.0875 10.5026 14.456C9.40785 14.7389 8.2591 14.7385 7.16459 14.4547C7.18395 14.0862 7.10098 13.7195 6.92487 13.3952C6.74875 13.0709 6.48635 12.8017 6.1667 12.6173C5.84705 12.4329 5.48262 12.3405 5.11374 12.3504C4.74485 12.3603 4.38589 12.4721 4.07659 12.6733C3.68258 12.2713 3.34098 11.8211 3.05992 11.3333ZM6.83325 11.464C7.54367 11.8738 8.07782 12.5313 8.33325 13.3107C8.66592 13.342 8.99992 13.3427 9.33258 13.3113C9.58819 12.5319 10.1226 11.8743 10.8333 11.4647C11.5434 11.0538 12.3803 10.9197 13.1833 11.088C13.3766 10.816 13.5433 10.526 13.6819 10.2227C13.1349 9.61163 12.8327 8.82014 12.8333 8C12.8333 7.16 13.1466 6.37533 13.6819 5.77733C13.5423 5.4741 13.3749 5.18442 13.1819 4.912C12.3794 5.08021 11.5431 4.94632 10.8333 4.536C10.1228 4.12625 9.58869 3.46866 9.33325 2.68933C9.00059 2.658 8.66658 2.65733 8.33392 2.68867C8.07832 3.4681 7.54392 4.12571 6.83325 4.53533C6.12311 4.94621 5.28624 5.08035 4.48325 4.912C4.2903 5.18419 4.12334 5.47391 3.98459 5.77733C4.53163 6.38837 4.83384 7.17986 4.83325 8C4.83325 8.84 4.51992 9.62467 3.98459 10.2227C4.12423 10.5259 4.29161 10.8156 4.48459 11.088C5.28706 10.9198 6.12339 11.0537 6.83325 11.464ZM8.83325 10C8.30282 10 7.79411 9.78929 7.41904 9.41421C7.04397 9.03914 6.83325 8.53043 6.83325 8C6.83325 7.46957 7.04397 6.96086 7.41904 6.58579C7.79411 6.21071 8.30282 6 8.83325 6C9.36369 6 9.87239 6.21071 10.2475 6.58579C10.6225 6.96086 10.8333 7.46957 10.8333 8C10.8333 8.53043 10.6225 9.03914 10.2475 9.41421C9.87239 9.78929 9.36369 10 8.83325 10ZM8.83325 8.66667C9.01006 8.66667 9.17963 8.59643 9.30466 8.47141C9.42968 8.34638 9.49992 8.17681 9.49992 8C9.49992 7.82319 9.42968 7.65362 9.30466 7.5286C9.17963 7.40357 9.01006 7.33333 8.83325 7.33333C8.65644 7.33333 8.48687 7.40357 8.36185 7.5286C8.23682 7.65362 8.16659 7.82319 8.16659 8C8.16659 8.17681 8.23682 8.34638 8.36185 8.47141C8.48687 8.59643 8.65644 8.66667 8.83325 8.66667Z" fill="#625E83"/>
</svg>
