<svg width="17" height="16" viewBox="0 0 17 16" fill="none" xmlns="http://www.w3.org/2000/svg">
<path d="M11.6668 2H14.3335C14.5103 2 14.6799 2.07024 14.8049 2.19526C14.9299 2.32029 15.0002 2.48986 15.0002 2.66667V13.3333C15.0002 13.5101 14.9299 13.6797 14.8049 13.8047C14.6799 13.9298 14.5103 14 14.3335 14H2.3335C2.15669 14 1.98712 13.9298 1.86209 13.8047C1.73707 13.6797 1.66683 13.5101 1.66683 13.3333V2.66667C1.66683 2.48986 1.73707 2.32029 1.86209 2.19526C1.98712 2.07024 2.15669 2 2.3335 2H5.00016V0.666667H6.3335V2H10.3335V0.666667H11.6668V2ZM3.00016 6V12.6667H13.6668V6H3.00016ZM4.3335 8.66667H7.66683V11.3333H4.3335V8.66667Z" fill="#625E83"/>
</svg>
