<svg width="17" height="16" viewBox="0 0 17 16" fill="none" xmlns="http://www.w3.org/2000/svg">
<path d="M8.33325 5.66667L9.74392 9.05867L13.4053 9.352L10.6159 11.7413L11.4679 15.3147L8.33325 13.4L5.19859 15.3147L6.05059 11.7413L3.26125 9.352L6.92259 9.05867L8.33325 5.66667ZM8.33325 9.138L7.84059 10.3227L6.56325 10.4247L7.53659 11.2587L7.23859 12.506L8.33325 11.8373L9.42725 12.506L9.12992 11.2593L10.1026 10.4247L8.82592 10.3227L8.33325 9.138ZM5.66659 1.33333V7.33333H4.33325V1.33333H5.66659ZM12.3333 1.33333V7.33333H10.9999V1.33333H12.3333ZM8.99992 1.33333V4.66667H7.66659V1.33333H8.99992Z" fill="#625E83"/>
</svg>
