<svg width="17" height="16" viewBox="0 0 17 16" fill="none" xmlns="http://www.w3.org/2000/svg">
<path d="M6.88683 5.86L5.66683 6.304V8.66667H4.3335V5.36667H4.3435L7.8555 4.088C8.01816 4.026 8.1955 3.99467 8.37683 4.00067C8.73917 4.0097 9.08969 4.1314 9.37966 4.34886C9.66964 4.56631 9.88465 4.8687 9.99483 5.214C10.1188 5.60267 10.2322 5.86533 10.3348 6.002C10.6451 6.41575 11.0475 6.75149 11.5102 6.98258C11.9729 7.21368 12.483 7.33377 13.0002 7.33333V8.66667C12.3117 8.66742 11.6316 8.51552 11.0089 8.22191C10.3862 7.9283 9.83629 7.50028 9.39883 6.96867L8.93416 9.606L10.3335 10.78V15.3333H9.00016V11.4013L7.48683 10.132L7.00216 12.8833L2.40616 12.0733L2.63816 10.76L5.92083 11.3387L6.88683 5.86ZM9.3335 3.66667C8.97987 3.66667 8.64074 3.52619 8.39069 3.27614C8.14064 3.02609 8.00016 2.68696 8.00016 2.33333C8.00016 1.97971 8.14064 1.64057 8.39069 1.39052C8.64074 1.14048 8.97987 1 9.3335 1C9.68712 1 10.0263 1.14048 10.2763 1.39052C10.5264 1.64057 10.6668 1.97971 10.6668 2.33333C10.6668 2.68696 10.5264 3.02609 10.2763 3.27614C10.0263 3.52619 9.68712 3.66667 9.3335 3.66667Z" fill="#625E83"/>
</svg>
