<svg width="24" height="24" viewBox="0 0 24 24" fill="none" xmlns="http://www.w3.org/2000/svg">
<path d="M3 3.993C3 3.445 3.445 3 3.993 3H20.007C20.555 3 21 3.445 21 3.993V20.007C20.9997 20.2703 20.895 20.5227 20.7089 20.7089C20.5227 20.895 20.2703 20.9997 20.007 21H3.993C3.72972 20.9997 3.4773 20.895 3.29114 20.7089C3.10497 20.5227 3.00026 20.2703 3 20.007V3.993ZM10.622 8.415C10.5618 8.37485 10.4919 8.35177 10.4196 8.34822C10.3473 8.34467 10.2755 8.36079 10.2116 8.39486C10.1478 8.42893 10.0944 8.47967 10.0572 8.54168C10.0199 8.60369 10.0001 8.67465 10 8.747V15.253C10.0001 15.3253 10.0199 15.3963 10.0572 15.4583C10.0944 15.5203 10.1478 15.5711 10.2116 15.6051C10.2755 15.6392 10.3473 15.6553 10.4196 15.6518C10.4919 15.6482 10.5618 15.6252 10.622 15.585L15.501 12.333C15.5559 12.2965 15.6009 12.247 15.632 12.1889C15.6631 12.1308 15.6794 12.0659 15.6794 12C15.6794 11.9341 15.6631 11.8692 15.632 11.8111C15.6009 11.753 15.5559 11.7035 15.501 11.667L10.622 8.415Z" fill="#06A65B"/>
</svg>
