<svg width="16" height="16" viewBox="0 0 16 16" fill="none" xmlns="http://www.w3.org/2000/svg">
<path d="M8 14.6667C4.318 14.6667 1.33333 11.682 1.33333 8C1.33333 4.318 4.318 1.33333 8 1.33333C11.682 1.33333 14.6667 4.318 14.6667 8C14.6667 11.682 11.682 14.6667 8 14.6667ZM8 13.3333C9.41449 13.3333 10.771 12.7714 11.7712 11.7712C12.7714 10.771 13.3333 9.41449 13.3333 8C13.3333 6.58551 12.7714 5.22896 11.7712 4.22876C10.771 3.22857 9.41449 2.66667 8 2.66667C6.58551 2.66667 5.22896 3.22857 4.22876 4.22876C3.22857 5.22896 2.66667 6.58551 2.66667 8C2.66667 9.41449 3.22857 10.771 4.22876 11.7712C5.22896 12.7714 6.58551 13.3333 8 13.3333ZM5.66667 9.33333H9.33333C9.42174 9.33333 9.50652 9.29821 9.56904 9.2357C9.63155 9.17319 9.66667 9.08841 9.66667 9C9.66667 8.91159 9.63155 8.82681 9.56904 8.7643C9.50652 8.70179 9.42174 8.66667 9.33333 8.66667H6.66667C6.22464 8.66667 5.80072 8.49107 5.48816 8.17851C5.17559 7.86595 5 7.44203 5 7C5 6.55797 5.17559 6.13405 5.48816 5.82149C5.80072 5.50893 6.22464 5.33333 6.66667 5.33333H7.33333V4H8.66667V5.33333H10.3333V6.66667H6.66667C6.57826 6.66667 6.49348 6.70179 6.43096 6.7643C6.36845 6.82681 6.33333 6.91159 6.33333 7C6.33333 7.08841 6.36845 7.17319 6.43096 7.2357C6.49348 7.29821 6.57826 7.33333 6.66667 7.33333H9.33333C9.77536 7.33333 10.1993 7.50893 10.5118 7.82149C10.8244 8.13405 11 8.55797 11 9C11 9.44203 10.8244 9.86595 10.5118 10.1785C10.1993 10.4911 9.77536 10.6667 9.33333 10.6667H8.66667V12H7.33333V10.6667H5.66667V9.33333Z" fill="#09090A"/>
</svg>
