<svg width="32" height="32" viewBox="0 0 32 32" fill="none" xmlns="http://www.w3.org/2000/svg">
<g clip-path="url(#clip0_684_4061)">
<path fill-rule="evenodd" clip-rule="evenodd" d="M17.354 0.00866073C22.2688 -0.0961151 27.6982 0.710162 30.5517 4.60621C33.2978 8.3555 31.5057 13.2722 30.3361 17.7337C29.2218 21.9841 28.0005 26.341 24.2256 28.7376C19.7933 31.5517 14.1879 33.109 9.32743 31.0718C4.27483 28.954 1.09869 23.9434 0.188887 18.6629C-0.660544 13.7329 1.43532 8.8777 4.86187 5.15388C8.03555 1.70487 12.598 0.110051 17.354 0.00866073Z" fill="#FFD188" fill-opacity="0.8"/>
<g clip-path="url(#clip1_684_4061)">
<path d="M10.1667 23.0833C9.39312 23.0833 8.65125 22.776 8.10427 22.2291C7.55729 21.6821 7.25 20.9402 7.25 20.1667C7.25 19.3931 7.55729 18.6513 8.10427 18.1043C8.65125 17.5573 9.39312 17.25 10.1667 17.25C10.9402 17.25 11.6821 17.5573 12.2291 18.1043C12.776 18.6513 13.0833 19.3931 13.0833 20.1667C13.0833 20.9402 12.776 21.6821 12.2291 22.2291C11.6821 22.776 10.9402 23.0833 10.1667 23.0833ZM10.1667 16C9.0616 16 8.00179 16.439 7.22039 17.2204C6.43899 18.0018 6 19.0616 6 20.1667C6 21.2717 6.43899 22.3315 7.22039 23.1129C8.00179 23.8943 9.0616 24.3333 10.1667 24.3333C11.2717 24.3333 12.3315 23.8943 13.1129 23.1129C13.8943 22.3315 14.3333 21.2717 14.3333 20.1667C14.3333 19.0616 13.8943 18.0018 13.1129 17.2204C12.3315 16.439 11.2717 16 10.1667 16ZM18.3333 14.3333H21.8333V12.8333H19.1667L17.55 10.1083C17.3083 9.69167 16.8333 9.41667 16.3333 9.41667C15.9417 9.41667 15.5833 9.575 15.3333 9.83333L12.25 12.9083C11.9917 13.1667 11.8333 13.5 11.8333 13.9167C11.8333 14.4417 12.1083 14.8833 12.5417 15.1417L15.3333 16.8333V21H16.8333V15.5833L14.9583 14.2083L16.8917 12.25M21.8333 23.0833C21.0598 23.0833 20.3179 22.776 19.7709 22.2291C19.224 21.6821 18.9167 20.9402 18.9167 20.1667C18.9167 19.3931 19.224 18.6513 19.7709 18.1043C20.3179 17.5573 21.0598 17.25 21.8333 17.25C22.6069 17.25 23.3487 17.5573 23.8957 18.1043C24.4427 18.6513 24.75 19.3931 24.75 20.1667C24.75 20.9402 24.4427 21.6821 23.8957 22.2291C23.3487 22.776 22.6069 23.0833 21.8333 23.0833ZM21.8333 16C20.7283 16 19.6685 16.439 18.8871 17.2204C18.1057 18.0018 17.6667 19.0616 17.6667 20.1667C17.6667 21.2717 18.1057 22.3315 18.8871 23.1129C19.6685 23.8943 20.7283 24.3333 21.8333 24.3333C22.3805 24.3333 22.9223 24.2256 23.4278 24.0162C23.9334 23.8068 24.3927 23.4999 24.7796 23.1129C25.1665 22.726 25.4734 22.2667 25.6828 21.7612C25.8922 21.2557 26 20.7138 26 20.1667C26 19.6195 25.8922 19.0777 25.6828 18.5722C25.4734 18.0666 25.1665 17.6073 24.7796 17.2204C24.3927 16.8335 23.9334 16.5266 23.4278 16.3172C22.9223 16.1078 22.3805 16 21.8333 16ZM19.3333 10C20.1667 10 20.8333 9.33333 20.8333 8.5C20.8333 7.66667 20.1667 7 19.3333 7C18.5 7 17.8333 7.66667 17.8333 8.5C17.8333 9.33333 18.5 10 19.3333 10Z" fill="black"/>
</g>
</g>
<defs>
<clipPath id="clip0_684_4061">
<rect width="32" height="32" fill="white"/>
</clipPath>
<clipPath id="clip1_684_4061">
<rect width="20" height="20" fill="white" transform="translate(6 6)"/>
</clipPath>
</defs>
</svg>
