<svg width="33" height="32" viewBox="0 0 33 32" fill="none" xmlns="http://www.w3.org/2000/svg">
<path fill-rule="evenodd" clip-rule="evenodd" d="M16.3781 0.330412C20.7169 -0.211278 25.5526 -0.538697 28.588 3.13057C31.8785 7.10806 32.6829 13.2099 31.4565 18.5573C30.2815 23.6807 26.616 27.188 22.5393 29.5051C18.4423 31.8337 13.8374 32.9657 9.61329 30.9723C5.03647 28.8126 0.632998 24.6275 0.0482067 18.8917C-0.49955 13.5191 3.73275 9.58894 7.04887 5.8197C9.67598 2.83361 12.737 0.785005 16.3781 0.330412Z" fill="#CFC7FF" fill-opacity="0.8"/>
<path d="M19.3333 10.5833C19.7754 10.5833 20.1993 10.4077 20.5118 10.0952C20.8244 9.78262 21 9.35869 21 8.91667C21 8.47464 20.8244 8.05072 20.5118 7.73816C20.1993 7.42559 19.7754 7.25 19.3333 7.25C18.8913 7.25 18.4674 7.42559 18.1548 7.73816C17.8423 8.05072 17.6667 8.47464 17.6667 8.91667C17.6667 9.35869 17.8423 9.78262 18.1548 10.0952C18.4674 10.4077 18.8913 10.5833 19.3333 10.5833ZM16.3333 22.1667L17.1667 18.5L18.9167 20.1667V25.1667H20.5833V18.9167L18.8333 17.25L19.3333 14.75C20.4917 16.075 22.1583 16.8333 23.9167 16.8333V15.1667C22.45 15.1917 21.0833 14.425 20.3333 13.1667L19.5 11.8333C19.2 11.3333 18.6667 11 18.0833 11C17.8333 11 17.6667 11.0833 17.4167 11.0833L13.0833 12.9167V16.8333H14.75V14L16.25 13.4167L14.9167 20.1667L10.8333 19.3333L10.5 21L16.3333 22.1667ZM8.91667 13.5C8.69565 13.5 8.48369 13.4122 8.32741 13.2559C8.17113 13.0996 8.08333 12.8877 8.08333 12.6667C8.08333 12.4457 8.17113 12.2337 8.32741 12.0774C8.48369 11.9211 8.69565 11.8333 8.91667 11.8333H11.4167V13.5H8.91667ZM9.75 10.1667C9.52899 10.1667 9.31702 10.0789 9.16074 9.92259C9.00446 9.76631 8.91667 9.55435 8.91667 9.33333C8.91667 9.11232 9.00446 8.90036 9.16074 8.74408C9.31702 8.5878 9.52899 8.5 9.75 8.5H13.9167V10.1667H9.75ZM8.08333 16.8333C7.86232 16.8333 7.65036 16.7455 7.49408 16.5893C7.3378 16.433 7.25 16.221 7.25 16C7.25 15.779 7.3378 15.567 7.49408 15.4107C7.65036 15.2545 7.86232 15.1667 8.08333 15.1667H11.4167V16.8333H8.08333Z" fill="black"/>
</svg>
