<svg width="32" height="32" viewBox="0 0 32 32" fill="none" xmlns="http://www.w3.org/2000/svg">
<path fill-rule="evenodd" clip-rule="evenodd" d="M16.3781 0.330412C20.7169 -0.211278 25.5526 -0.538697 28.588 3.13057C31.8785 7.10806 32.6829 13.2099 31.4565 18.5573C30.2815 23.6807 26.616 27.188 22.5393 29.5051C18.4423 31.8337 13.8374 32.9657 9.61329 30.9723C5.03647 28.8126 0.632998 24.6275 0.0482067 18.8917C-0.49955 13.5191 3.73275 9.58894 7.04887 5.8197C9.67598 2.83361 12.737 0.785005 16.3781 0.330412Z" fill="#5D64FF" fill-opacity="0.5"/>
<path d="M7.66675 20.9999C9.51675 20.1666 11.3667 19.3333 13.2251 19.3333C15.0751 19.3333 16.9251 20.9999 18.7751 20.9999C20.6334 20.9999 22.4834 19.3333 24.3334 19.3333V21.8333C22.4834 21.8333 20.6334 23.4999 18.7751 23.4999C16.9251 23.4999 15.0751 21.8333 13.2251 21.8333C11.3667 21.8333 9.51675 22.6666 7.66675 23.4999V20.9999ZM13.2251 16.8333C12.5751 16.8333 11.9334 16.9333 11.2917 17.0999L15.3917 14.2333L14.5251 13.1999C14.4084 13.0583 14.3334 12.8666 14.3334 12.6666C14.3334 12.3833 14.4751 12.1249 14.7001 11.9749L19.4667 8.6416L20.4251 9.99993L16.3917 12.8249L20.7501 18.0166C20.0917 18.2916 19.4334 18.4999 18.7751 18.4999C16.9251 18.4999 15.0751 16.8333 13.2251 16.8333ZM21.0001 11.8333C21.4421 11.8333 21.866 12.0089 22.1786 12.3214C22.4912 12.634 22.6667 13.0579 22.6667 13.4999C22.6667 13.942 22.4912 14.3659 22.1786 14.6784C21.866 14.991 21.4421 15.1666 21.0001 15.1666C20.5581 15.1666 20.1341 14.991 19.8216 14.6784C19.509 14.3659 19.3334 13.942 19.3334 13.4999C19.3334 13.0579 19.509 12.634 19.8216 12.3214C20.1341 12.0089 20.5581 11.8333 21.0001 11.8333Z" fill="black"/>
</svg>
