<svg width="32" height="32" viewBox="0 0 32 32" fill="none" xmlns="http://www.w3.org/2000/svg">
<path fill-rule="evenodd" clip-rule="evenodd" d="M16.3781 0.330412C20.7169 -0.211278 25.5526 -0.538697 28.588 3.13057C31.8785 7.10806 32.6829 13.2099 31.4565 18.5573C30.2815 23.6807 26.616 27.188 22.5393 29.5051C18.4423 31.8337 13.8374 32.9657 9.61329 30.9723C5.03647 28.8126 0.632998 24.6275 0.0482067 18.8917C-0.49955 13.5191 3.73275 9.58894 7.04887 5.8197C9.67598 2.83361 12.737 0.785005 16.3781 0.330412Z" fill="#FF6D6D" fill-opacity="0.8"/>
<g clip-path="url(#clip0_684_3899)">
<path d="M17.7667 14.1667H21.8333V12.6667H18.8167L17.15 9.89167C16.9 9.475 16.45 9.19167 15.9333 9.19167C15.7833 9.19167 15.65 9.21667 15.5167 9.25833L11 10.6667V15H12.5V11.9417L14.2583 11.3917L11 24.1667H12.5L14.8917 17.4083L16.8333 20V24.1667H18.3333V18.825L16.2583 15.0417L16.8667 12.65M17.6667 9C18.5 9 19.1667 8.33333 19.1667 7.5C19.1667 6.66667 18.5 6 17.6667 6C16.8333 6 16.1667 6.66667 16.1667 7.5C16.1667 8.33333 16.8333 9 17.6667 9Z" fill="black"/>
</g>
<defs>
<clipPath id="clip0_684_3899">
<rect width="11" height="19" fill="white" transform="translate(11 6)"/>
</clipPath>
</defs>
</svg>
